<svg width="53" height="40" viewBox="0 0 53 40" fill="none" xmlns="http://www.w3.org/2000/svg">
<path fill-rule="evenodd" clip-rule="evenodd" d="M0 2.93948H15.0073V7.88089H10.0048V35.0586H15.0073V40H0V35.0586H5.00242V7.88089H0V2.93948Z" fill="#E9ED26"/>
<path fill-rule="evenodd" clip-rule="evenodd" d="M24.9106 20.1342L27.6417 12.041H32.3874L35.1184 20.1342L43.3115 22.8319V27.5197L35.1184 30.2174L32.3874 38.3106H27.6417L24.9106 30.2174L16.7175 27.5197V22.8319L24.9106 20.1342ZM30.0145 20.6353L29.2609 22.8687L27.679 24.4313L25.418 25.1758L27.679 25.9203L29.2609 27.4829L30.0145 29.7163L30.7682 27.4829L32.3501 25.9203L34.6111 25.1758L32.3501 24.4313L30.7682 22.8687L30.0145 20.6353Z" fill="#E9ED26"/>
<path fill-rule="evenodd" clip-rule="evenodd" d="M40.3962 5.78242L42.3475 0H45.1949L47.1462 5.78242L53 7.70989V10.5226L47.1462 12.4501L45.1949 18.2325H42.3475L40.3962 12.4501L34.5424 10.5226V7.70989L40.3962 5.78242Z" fill="#E9ED26"/>
</svg>
