<svg width="58" height="18" viewBox="0 0 58 18" fill="none" xmlns="http://www.w3.org/2000/svg">
<path d="M4.18841 18H0.31884V5.97667H4.18841V18ZM2.24638 4.32503C1 4.32503 0 3.35925 0 2.15552C0 0.951785 1.01449 0 2.24638 0C3.47826 0 4.49276 0.965788 4.49276 2.16952C4.49276 3.37325 3.49276 4.32503 2.24638 4.32503ZM18.6811 18H14.8116V12.1493C14.8116 10.7496 14.7826 8.95803 12.7971 8.95803C10.7826 8.95803 10.4782 10.4836 10.4782 12.0513V18H6.60872V5.97667H10.3188V7.61429H10.3768C10.8985 6.66253 12.1594 5.66874 14.0435 5.66874C17.9565 5.66874 18.6811 8.16014 18.6811 11.3935V18Z" fill="white"/>
<path d="M44.6719 0C41.9149 0 39.6719 2.243 39.6719 5V13C39.6719 15.757 41.9149 18 44.6719 18H52.6719C55.4289 18 57.6719 15.757 57.6719 13V5C57.6719 2.243 55.4289 0 52.6719 0H44.6719ZM44.6719 2H52.6719C54.3259 2 55.6719 3.346 55.6719 5V13C55.6719 14.654 54.3259 16 52.6719 16H44.6719C43.0179 16 41.6719 14.654 41.6719 13V5C41.6719 3.346 43.0179 2 44.6719 2ZM53.6719 3C53.4067 3 53.1523 3.10536 52.9648 3.29289C52.7772 3.48043 52.6719 3.73478 52.6719 4C52.6719 4.26522 52.7772 4.51957 52.9648 4.70711C53.1523 4.89464 53.4067 5 53.6719 5C53.9371 5 54.1914 4.89464 54.379 4.70711C54.5665 4.51957 54.6719 4.26522 54.6719 4C54.6719 3.73478 54.5665 3.48043 54.379 3.29289C54.1914 3.10536 53.9371 3 53.6719 3ZM48.6719 4C45.9149 4 43.6719 6.243 43.6719 9C43.6719 11.757 45.9149 14 48.6719 14C51.4289 14 53.6719 11.757 53.6719 9C53.6719 6.243 51.4289 4 48.6719 4ZM48.6719 6C50.3259 6 51.6719 7.346 51.6719 9C51.6719 10.654 50.3259 12 48.6719 12C47.0179 12 45.6719 10.654 45.6719 9C45.6719 7.346 47.0179 6 48.6719 6Z" fill="white"/>
</svg>
